<svg width="1283" height="219" viewBox="0 0 1283 219" fill="none" xmlns="http://www.w3.org/2000/svg">
<path d="M151.943 58.1249C423.705 97.7954 695.545 137.009 967.197 177.406C1094.65 196.359 711.998 141.472 584.414 123.397C553.29 118.987 522.131 114.721 491.027 110.166C474.92 107.808 495.765 109.555 497.951 109.702C533.266 112.087 568.575 114.896 603.886 117.486C612.839 118.142 621.793 118.802 630.747 119.402C645.363 120.381 648.085 120.635 629.894 118.058C542.555 105.684 454.652 92.3102 366.963 83.0303C286.171 74.4802 527.698 107.359 608.178 118.761C662.146 126.407 716.525 135.368 770.721 141.567C773.085 141.837 780.087 142.586 777.829 141.907C756.135 135.379 732.949 133.345 710.388 129.685C599.67 111.721 266.444 64.343 377.518 80.0796C503.203 97.886 628.887 115.692 754.571 133.499C810.301 141.394 976.996 167.74 921.76 157.185C844.589 142.439 764.011 131.981 686.731 119.886C522.921 94.2493 30.602 22.927 194.78 46.187C308.87 62.3508 422.961 78.5146 537.051 94.6784C554.588 97.163 572.117 99.7086 589.663 102.132C593.027 102.597 603.121 103.933 599.777 103.343C587.908 101.249 575.971 99.516 564.065 97.6164C486.448 85.233 408.843 72.8366 331.351 59.7559C316.547 57.2568 301.751 54.7134 286.962 52.1332C262.649 47.8911 275.879 50.0302 286.44 51.6145C419.907 71.6363 553.522 90.642 687.067 110.152C842.535 132.865 1308.32 204.975 1152.92 181.821C957.909 152.765 763.087 122.532 568.105 93.2982C556.671 91.5838 545.213 90.013 533.792 88.2145C531.749 87.8927 537.908 88.6182 539.961 88.8662C594.088 95.4023 648.183 102.259 702.291 108.974C716.746 110.768 731.195 112.619 745.657 114.34C776.417 118.002 756.271 114.981 731.782 111.263C621.462 94.513 510.931 79.0918 400.465 63.3231C373.384 59.4573 346.294 55.6468 319.224 51.7021C281.89 46.2615 280.831 46.0144 317.656 50.146C422.29 61.8853 526.863 74.6205 631.347 87.808C702.375 96.7729 773.345 106.147 844.234 116.191C879.162 121.139 774.382 106.256 739.448 101.345C598.004 81.4606 173.193 25.4108 314.851 43.6353C589.716 78.9966 864.566 115.07 1138.98 153.947C1373 187.103 670.926 87.6356 436.9 54.4798C414.099 51.2493 345.721 43.2374 368.628 43.9181C422.083 45.5064 484.109 57.6055 535.796 64.6005C733.266 91.3251 570.309 69.6139 752.39 94.1752C773.261 96.9904 794.133 99.7881 815.017 102.492C818.436 102.935 828.693 104.184 825.294 103.615C816.173 102.086 806.991 100.921 797.834 99.613C608.072 72.511 418.248 45.8349 228.455 18.9459C-64.4183 -22.5472 814.202 101.932 1107.08 143.425C1149.56 149.443 1276.84 168.378 1234.54 161.262C1128.58 143.435 1021.4 128.816 915.12 113.562C703.063 83.1264 66.8541 -7.11055 278.221 27.5526C406.505 48.5907 535.1 66.7642 661.99 94.5948C698.563 102.616 686.897 101.497 657.503 97.8495C594.073 89.9779 530.643 82.0469 467.245 73.8957C444.015 70.909 420.795 67.8434 397.572 64.8028C370.63 61.2753 343.434 54.2793 316.623 55.335C281.434 56.7205 384.503 75.8591 419.518 82.473C502.33 98.1152 753.184 132.013 669.484 121.666C464.012 96.2675 258.775 66.054 52.8802 44.9792C35.8234 43.2334 -26.8515 38.1918 42.7489 45.9892C153.704 58.4198 264.426 71.5167 375.146 86.3015C478.333 100.08 581.406 114.854 684.465 129.569C694.742 131.036 705.025 132.472 715.286 134.046C717.576 134.398 724.415 135.534 722.109 135.347C714.906 134.761 707.728 133.751 700.548 132.848C559.34 115.084 418.595 93.4268 277.552 74.3644C252.339 70.9568 176.561 61.9739 201.84 64.7495C281.244 73.4675 360.506 82.9976 439.805 92.9056C605.405 113.597 1102.11 175.961 936.237 158.125C791.5 142.562 646.915 123.75 502.661 103.812C494.961 102.747 471.863 99.5279 479.571 100.54C558.841 110.952 638.099 121.548 717.333 132.225C885.314 154.86 1053.24 177.912 1221.08 201.592C1237.25 203.874 1285.85 209.656 1269.58 208.575C1208.99 204.551 1148.97 192.126 1088.8 182.963C1054.11 177.68 1019.31 172.792 984.895 166.13C979.111 165.011 963.065 160.307 968.806 159.738C985.483 158.085 1002.92 161.302 1019.97 162.652C1049.15 164.963 1136.45 175.597 1107.42 171.485C917.459 144.572 727.018 120.53 536.418 99.146C526.632 98.0481 516.839 97.0456 507.05 95.9857C502.827 95.5284 515.513 96.5348 519.742 96.8946C567.855 100.988 615.852 106.3 663.85 111.976C680.097 113.897 776.844 124.618 664.334 113.823C589.825 106.674 515.235 98.8555 440.651 93.2477C367.827 87.7724 586.232 106.315 658.95 113.949C690.125 117.222 721.29 120.693 752.414 124.523C769.064 126.572 785.88 128.062 802.249 131.584C807.681 132.753 791.23 132.075 785.688 131.683C662.879 122.992 295.281 81.0931 417.549 97.422C537.331 113.419 657.532 128.234 777.629 141.212C787.182 142.244 796.744 143.196 806.313 143.942C820.034 145.01 818.452 144.116 805.844 141.986C748.813 132.351 690.916 125.77 633.64 117.922C539.561 105.032 257.273 67.0856 351.581 77.961C449.578 89.2619 547.283 104.131 644.963 117.97C710.338 127.232 514.212 99.4458 448.837 90.1837C404.36 83.8823 359.372 78.296 314.969 71.2178C280.376 65.7034 384.438 80.3378 419.162 84.9792C485.642 93.8649 552.307 102.311 618.581 112.676C622.092 113.225 632.549 115.001 629.01 114.821C598.926 113.285 568.996 107.756 539.031 103.851C469.217 94.7532 259.766 68.1777 329.79 74.9849C389.874 80.8259 455.475 82.253 514.034 97.1975C516.693 97.876 522.377 100.451 520.263 101.637C514.853 104.67 506.967 104.298 500.107 105.006C487.115 106.347 473.925 106.936 460.805 107.774C435.358 109.4 399.821 107.192 375.026 112.405C373.671 112.69 377.559 113.694 378.979 113.966C401.766 118.332 424.919 120.808 447.913 124.066C505.786 132.265 563.659 140.464 621.532 148.663C634.637 150.52 673.967 155.93 660.83 154.342C620.631 149.482 580.495 144.045 540.352 138.718C470.582 129.46 400.846 120.028 330.887 112.488C314.152 110.684 242.163 103.516 331.656 113.375C445.445 125.91 559.053 139.464 672.591 154.452C706.638 158.947 740.66 163.636 774.677 168.359C799.63 171.824 825.19 173.076 849.442 179.396C882.034 187.891 782.23 171.208 748.709 166.459C656.539 153.401 564.482 139.55 472.389 125.977C433.498 120.245 386.841 113.412 348.812 108.025" stroke="#FFDE59" stroke-opacity="0.9" stroke-width="20" stroke-linecap="round"/>
</svg>
